# xmcd
#
# Track frame offsets: 
#        150
#        14962
#        32895
#        55403
#        73696
#        89990
#        107061
#        127057
#        147728
#        166924
#        184793
#        202085
#        228082
#        241669
#
# Disc length: 3419 seconds
#
# Revision: 0
# Processed by: cddbd v1.5.2PL0 Copyright (c) Steve Scherf et al.
# Submitted via: ExactAudioCopy v0.99pb3
#
DISCID=d80d590e
DTITLE=Slim Bawb - Ghost Dawg
DYEAR=2005
DGENRE=Blues
TTITLE0=Ghost Dawg
TTITLE1=New Ghost Town
TTITLE2=He Don't Talk About That - Chime Bells
TTITLE3=Don't Know Why
TTITLE4=Mon Pere
TTITLE5=You Better Rest
TTITLE6=New Promised Land
TTITLE7=Rasslin' Song
TTITLE8=That Dawg Don't Hunt
TTITLE9=Truth Be Told
TTITLE10=Racing The Sun Home Again
TTITLE11=Mandolin Shotgun Blues
TTITLE12=Song Save Me
TTITLE13=I'm Phime
EXTD=
EXTT0=
EXTT1=
EXTT2=
EXTT3=
EXTT4=
EXTT5=
EXTT6=
EXTT7=
EXTT8=
EXTT9=
EXTT10=
EXTT11=
EXTT12=
EXTT13=
PLAYORDER=
